<?xml version="1.0" encoding="UTF-8" standalone="no"?>
<!DOCTYPE svg PUBLIC "-//W3C//DTD SVG 1.1//EN"
 "http://www.w3.org/Graphics/SVG/1.1/DTD/svg11.dtd">
<!-- Generated by graphviz version 2.40.1 (20161225.0304)
 -->
<!-- Title: dependencies Pages: 1 -->
<svg width="504pt" height="284pt"
 viewBox="0.00 0.00 504.00 284.00" xmlns="http://www.w3.org/2000/svg" xmlns:xlink="http://www.w3.org/1999/xlink">
<g id="graph0" class="graph" transform="scale(1 1) rotate(0) translate(4 280)">
<title>dependencies</title>
<polygon fill="#ffffff" stroke="transparent" points="-4,4 -4,-280 500,-280 500,4 -4,4"/>
<text text-anchor="start" x="227.0091" y="-42.4" font-family="sans-serif" font-weight="bold" font-size="14.00" fill="#000000">Legend</text>
<polygon fill="#ffffb3" stroke="transparent" points="14,-10 14,-30 34,-30 34,-10 14,-10"/>
<text text-anchor="start" x="37.629" y="-15.4" font-family="sans-serif" font-size="14.00" fill="#000000"> &#160;Declarations</text>
<polygon fill="#8dd3c7" stroke="transparent" points="127,-10 127,-30 147,-30 147,-10 127,-10"/>
<text text-anchor="start" x="150.7251" y="-15.4" font-family="sans-serif" font-size="14.00" fill="#000000"> &#160;Module</text>
<polygon fill="#80b1d3" stroke="transparent" points="213,-10 213,-30 233,-30 233,-10 213,-10"/>
<text text-anchor="start" x="236.7812" y="-15.4" font-family="sans-serif" font-size="14.00" fill="#000000"> &#160;Bootstrap</text>
<polygon fill="#fdb462" stroke="transparent" points="310,-10 310,-30 330,-30 330,-10 310,-10"/>
<text text-anchor="start" x="333.6732" y="-15.4" font-family="sans-serif" font-size="14.00" fill="#000000"> &#160;Providers</text>
<polygon fill="#fb8072" stroke="transparent" points="406,-10 406,-30 426,-30 426,-10 406,-10"/>
<text text-anchor="start" x="429.7258" y="-15.4" font-family="sans-serif" font-size="14.00" fill="#000000"> &#160;Exports</text>
<g id="clust1" class="cluster">
<title>cluster_SharedModule</title>
<polygon fill="none" stroke="#000000" stroke-dasharray="1,5" points="70,-70 70,-268 426,-268 426,-70 70,-70"/>
</g>
<g id="clust2" class="cluster">
<title>cluster_SharedModule_declarations</title>
<polygon fill="none" stroke="#000000" points="309,-78 309,-130 415,-130 415,-78 309,-78"/>
</g>
<g id="clust4" class="cluster">
<title>cluster_SharedModule_imports</title>
<polygon fill="none" stroke="#000000" points="80,-78 80,-130 301,-130 301,-78 80,-78"/>
</g>
<g id="clust5" class="cluster">
<title>cluster_SharedModule_exports</title>
<polygon fill="none" stroke="#000000" points="78,-208 78,-260 418,-260 418,-208 78,-208"/>
</g>
<!-- TruncatePipe -->
<g id="node1" class="node">
<title>TruncatePipe</title>
<polygon fill="#ffffb3" stroke="#000000" points="407.1361,-122 316.8639,-122 316.8639,-86 407.1361,-86 407.1361,-122"/>
<text text-anchor="middle" x="362" y="-99.8" font-family="Times,serif" font-size="14.00" fill="#000000">TruncatePipe</text>
</g>
<!-- SharedModule -->
<g id="node2" class="node">
<title>SharedModule</title>
<polygon fill="#8dd3c7" stroke="#000000" points="302.4231,-187 299.4231,-191 278.4231,-191 275.4231,-187 203.5769,-187 203.5769,-151 302.4231,-151 302.4231,-187"/>
<text text-anchor="middle" x="253" y="-164.8" font-family="Times,serif" font-size="14.00" fill="#000000">SharedModule</text>
</g>
<!-- TruncatePipe&#45;&gt;SharedModule -->
<g id="edge1" class="edge">
<title>TruncatePipe&#45;&gt;SharedModule</title>
<path fill="none" stroke="#000000" d="M316.6742,-104C306.0412,-104 297.7423,-104 297.7423,-104 297.7423,-104 297.7423,-140.8939 297.7423,-140.8939"/>
<polygon fill="#000000" stroke="#000000" points="294.2424,-140.8938 297.7423,-150.8939 301.2424,-140.8939 294.2424,-140.8938"/>
</g>
<!-- ApiModule  -->
<g id="node5" class="node">
<title>ApiModule </title>
<polygon fill="#fb8072" stroke="#000000" points="410.047,-252 325.953,-252 325.953,-216 410.047,-216 410.047,-252"/>
<text text-anchor="middle" x="368" y="-229.8" font-family="Times,serif" font-size="14.00" fill="#000000">ApiModule </text>
</g>
<!-- SharedModule&#45;&gt;ApiModule  -->
<g id="edge4" class="edge">
<title>SharedModule&#45;&gt;ApiModule </title>
<path fill="none" stroke="#000000" stroke-dasharray="5,2" d="M302.5167,-169C333.1422,-169 366.6471,-169 366.6471,-169 366.6471,-169 366.6471,-205.8939 366.6471,-205.8939"/>
<polygon fill="#000000" stroke="#000000" points="363.1472,-205.8938 366.6471,-215.8939 370.1472,-205.8939 363.1472,-205.8938"/>
</g>
<!-- MaterialModule  -->
<g id="node6" class="node">
<title>MaterialModule </title>
<polygon fill="#fb8072" stroke="#000000" points="308.4716,-252 197.5284,-252 197.5284,-216 308.4716,-216 308.4716,-252"/>
<text text-anchor="middle" x="253" y="-229.8" font-family="Times,serif" font-size="14.00" fill="#000000">MaterialModule </text>
</g>
<!-- SharedModule&#45;&gt;MaterialModule  -->
<g id="edge5" class="edge">
<title>SharedModule&#45;&gt;MaterialModule </title>
<path fill="none" stroke="#000000" stroke-dasharray="5,2" d="M253,-187.1061C253,-187.1061 253,-205.991 253,-205.991"/>
<polygon fill="#000000" stroke="#000000" points="249.5001,-205.9909 253,-215.991 256.5001,-205.991 249.5001,-205.9909"/>
</g>
<!-- TruncatePipe  -->
<g id="node7" class="node">
<title>TruncatePipe </title>
<polygon fill="#fb8072" stroke="#000000" points="180.1355,-252 85.8645,-252 85.8645,-216 180.1355,-216 180.1355,-252"/>
<text text-anchor="middle" x="133" y="-229.8" font-family="Times,serif" font-size="14.00" fill="#000000">TruncatePipe </text>
</g>
<!-- SharedModule&#45;&gt;TruncatePipe  -->
<g id="edge6" class="edge">
<title>SharedModule&#45;&gt;TruncatePipe </title>
<path fill="none" stroke="#000000" stroke-dasharray="5,2" d="M203.4804,-169C170.7279,-169 133.7912,-169 133.7912,-169 133.7912,-169 133.7912,-205.8939 133.7912,-205.8939"/>
<polygon fill="#000000" stroke="#000000" points="130.2913,-205.8938 133.7912,-215.8939 137.2913,-205.8939 130.2913,-205.8938"/>
</g>
<!-- ApiModule -->
<g id="node3" class="node">
<title>ApiModule</title>
<polygon fill="#8dd3c7" stroke="#000000" points="293.0483,-122 290.0483,-126 269.0483,-126 266.0483,-122 212.9517,-122 212.9517,-86 293.0483,-86 293.0483,-122"/>
<text text-anchor="middle" x="253" y="-99.8" font-family="Times,serif" font-size="14.00" fill="#000000">ApiModule</text>
</g>
<!-- ApiModule&#45;&gt;SharedModule -->
<g id="edge2" class="edge">
<title>ApiModule&#45;&gt;SharedModule</title>
<path fill="none" stroke="#000000" d="M253,-122.1061C253,-122.1061 253,-140.991 253,-140.991"/>
<polygon fill="#000000" stroke="#000000" points="249.5001,-140.9909 253,-150.991 256.5001,-140.991 249.5001,-140.9909"/>
</g>
<!-- MaterialModule -->
<g id="node4" class="node">
<title>MaterialModule</title>
<polygon fill="#8dd3c7" stroke="#000000" points="194.4706,-122 191.4706,-126 170.4706,-126 167.4706,-122 87.5294,-122 87.5294,-86 194.4706,-86 194.4706,-122"/>
<text text-anchor="middle" x="141" y="-99.8" font-family="Times,serif" font-size="14.00" fill="#000000">MaterialModule</text>
</g>
<!-- MaterialModule&#45;&gt;SharedModule -->
<g id="edge3" class="edge">
<title>MaterialModule&#45;&gt;SharedModule</title>
<path fill="none" stroke="#000000" d="M194.6471,-104C202.6378,-104 208.2577,-104 208.2577,-104 208.2577,-104 208.2577,-140.8939 208.2577,-140.8939"/>
<polygon fill="#000000" stroke="#000000" points="204.7578,-140.8938 208.2577,-150.8939 211.7578,-140.8939 204.7578,-140.8938"/>
</g>
</g>
</svg>
