<?xml version="1.0" encoding="UTF-8" standalone="no"?>
<!DOCTYPE svg PUBLIC "-//W3C//DTD SVG 1.1//EN"
 "http://www.w3.org/Graphics/SVG/1.1/DTD/svg11.dtd">
<!-- Generated by graphviz version 2.40.1 (20161225.0304)
 -->
<!-- Title: dependencies Pages: 1 -->
<svg width="622pt" height="211pt"
 viewBox="0.00 0.00 622.00 211.00" xmlns="http://www.w3.org/2000/svg" xmlns:xlink="http://www.w3.org/1999/xlink">
<g id="graph0" class="graph" transform="scale(1 1) rotate(0) translate(4 207)">
<title>dependencies</title>
<polygon fill="#ffffff" stroke="transparent" points="-4,4 -4,-207 618,-207 618,4 -4,4"/>
<text text-anchor="start" x="286.0091" y="-42.4" font-family="sans-serif" font-weight="bold" font-size="14.00" fill="#000000">Legend</text>
<polygon fill="#ffffb3" stroke="transparent" points="73,-10 73,-30 93,-30 93,-10 73,-10"/>
<text text-anchor="start" x="96.629" y="-15.4" font-family="sans-serif" font-size="14.00" fill="#000000"> &#160;Declarations</text>
<polygon fill="#8dd3c7" stroke="transparent" points="186,-10 186,-30 206,-30 206,-10 186,-10"/>
<text text-anchor="start" x="209.7251" y="-15.4" font-family="sans-serif" font-size="14.00" fill="#000000"> &#160;Module</text>
<polygon fill="#80b1d3" stroke="transparent" points="272,-10 272,-30 292,-30 292,-10 272,-10"/>
<text text-anchor="start" x="295.7812" y="-15.4" font-family="sans-serif" font-size="14.00" fill="#000000"> &#160;Bootstrap</text>
<polygon fill="#fdb462" stroke="transparent" points="369,-10 369,-30 389,-30 389,-10 369,-10"/>
<text text-anchor="start" x="392.6732" y="-15.4" font-family="sans-serif" font-size="14.00" fill="#000000"> &#160;Providers</text>
<polygon fill="#fb8072" stroke="transparent" points="465,-10 465,-30 485,-30 485,-10 465,-10"/>
<text text-anchor="start" x="488.7258" y="-15.4" font-family="sans-serif" font-size="14.00" fill="#000000"> &#160;Exports</text>
<g id="clust1" class="cluster">
<title>cluster_LoginModule</title>
<polygon fill="none" stroke="#000000" stroke-dasharray="1,5" points="8,-70 8,-195 606,-195 606,-70 8,-70"/>
</g>
<g id="clust2" class="cluster">
<title>cluster_LoginModule_declarations</title>
<polygon fill="none" stroke="#000000" points="436,-78 436,-130 598,-130 598,-78 436,-78"/>
</g>
<g id="clust4" class="cluster">
<title>cluster_LoginModule_imports</title>
<polygon fill="none" stroke="#000000" points="158,-78 158,-130 428,-130 428,-78 158,-78"/>
</g>
<g id="clust7" class="cluster">
<title>cluster_LoginModule_providers</title>
<polygon fill="none" stroke="#000000" points="16,-78 16,-130 150,-130 150,-78 16,-78"/>
</g>
<!-- LoginFormComponent -->
<g id="node1" class="node">
<title>LoginFormComponent</title>
<polygon fill="#ffffb3" stroke="#000000" points="589.6094,-122 444.3906,-122 444.3906,-86 589.6094,-86 589.6094,-122"/>
<text text-anchor="middle" x="517" y="-99.8" font-family="Times,serif" font-size="14.00" fill="#000000">LoginFormComponent</text>
</g>
<!-- LoginModule -->
<g id="node2" class="node">
<title>LoginModule</title>
<polygon fill="#8dd3c7" stroke="#000000" points="329.493,-187 326.493,-191 305.493,-191 302.493,-187 236.507,-187 236.507,-151 329.493,-151 329.493,-187"/>
<text text-anchor="middle" x="283" y="-164.8" font-family="Times,serif" font-size="14.00" fill="#000000">LoginModule</text>
</g>
<!-- LoginFormComponent&#45;&gt;LoginModule -->
<g id="edge1" class="edge">
<title>LoginFormComponent&#45;&gt;LoginModule</title>
<path fill="none" stroke="#000000" d="M517,-122.1061C517,-141.3391 517,-169 517,-169 517,-169 339.5106,-169 339.5106,-169"/>
<polygon fill="#000000" stroke="#000000" points="339.5107,-165.5001 329.5106,-169 339.5106,-172.5001 339.5107,-165.5001"/>
</g>
<!-- LoginRoutingModule -->
<g id="node3" class="node">
<title>LoginRoutingModule</title>
<polygon fill="#8dd3c7" stroke="#000000" points="420.1108,-122 417.1108,-126 396.1108,-126 393.1108,-122 281.8892,-122 281.8892,-86 420.1108,-86 420.1108,-122"/>
<text text-anchor="middle" x="351" y="-99.8" font-family="Times,serif" font-size="14.00" fill="#000000">LoginRoutingModule</text>
</g>
<!-- LoginRoutingModule&#45;&gt;LoginModule -->
<g id="edge2" class="edge">
<title>LoginRoutingModule&#45;&gt;LoginModule</title>
<path fill="none" stroke="#000000" d="M305.7206,-122.1061C305.7206,-122.1061 305.7206,-140.991 305.7206,-140.991"/>
<polygon fill="#000000" stroke="#000000" points="302.2206,-140.9909 305.7206,-150.991 309.2206,-140.991 302.2206,-140.9909"/>
</g>
<!-- SharedModule -->
<g id="node4" class="node">
<title>SharedModule</title>
<polygon fill="#8dd3c7" stroke="#000000" points="264.4231,-122 261.4231,-126 240.4231,-126 237.4231,-122 165.5769,-122 165.5769,-86 264.4231,-86 264.4231,-122"/>
<text text-anchor="middle" x="215" y="-99.8" font-family="Times,serif" font-size="14.00" fill="#000000">SharedModule</text>
</g>
<!-- SharedModule&#45;&gt;LoginModule -->
<g id="edge3" class="edge">
<title>SharedModule&#45;&gt;LoginModule</title>
<path fill="none" stroke="#000000" d="M250.3573,-122.1061C250.3573,-122.1061 250.3573,-140.991 250.3573,-140.991"/>
<polygon fill="#000000" stroke="#000000" points="246.8574,-140.9909 250.3573,-150.991 253.8574,-140.991 246.8574,-140.9909"/>
</g>
<!-- AuthService -->
<g id="node5" class="node">
<title>AuthService</title>
<ellipse fill="#fdb462" stroke="#000000" cx="83" cy="-104" rx="59.1083" ry="18"/>
<text text-anchor="middle" x="83" y="-99.8" font-family="Times,serif" font-size="14.00" fill="#000000">AuthService</text>
</g>
<!-- AuthService&#45;&gt;LoginModule -->
<g id="edge4" class="edge">
<title>AuthService&#45;&gt;LoginModule</title>
<path fill="none" stroke="#000000" d="M83,-122.1061C83,-141.3391 83,-169 83,-169 83,-169 226.3613,-169 226.3613,-169"/>
<polygon fill="#000000" stroke="#000000" points="226.3613,-172.5001 236.3613,-169 226.3613,-165.5001 226.3613,-172.5001"/>
</g>
</g>
</svg>
