<?xml version="1.0" encoding="UTF-8" standalone="no"?>
<!DOCTYPE svg PUBLIC "-//W3C//DTD SVG 1.1//EN"
 "http://www.w3.org/Graphics/SVG/1.1/DTD/svg11.dtd">
<!-- Generated by graphviz version 2.40.1 (20161225.0304)
 -->
<!-- Title: dependencies Pages: 1 -->
<svg width="999pt" height="284pt"
 viewBox="0.00 0.00 999.00 284.00" xmlns="http://www.w3.org/2000/svg" xmlns:xlink="http://www.w3.org/1999/xlink">
<g id="graph0" class="graph" transform="scale(1 1) rotate(0) translate(4 280)">
<title>dependencies</title>
<polygon fill="#ffffff" stroke="transparent" points="-4,4 -4,-280 995,-280 995,4 -4,4"/>
<text text-anchor="start" x="474.5091" y="-42.4" font-family="sans-serif" font-weight="bold" font-size="14.00" fill="#000000">Legend</text>
<polygon fill="#ffffb3" stroke="transparent" points="261.5,-10 261.5,-30 281.5,-30 281.5,-10 261.5,-10"/>
<text text-anchor="start" x="285.129" y="-15.4" font-family="sans-serif" font-size="14.00" fill="#000000"> &#160;Declarations</text>
<polygon fill="#8dd3c7" stroke="transparent" points="374.5,-10 374.5,-30 394.5,-30 394.5,-10 374.5,-10"/>
<text text-anchor="start" x="398.2251" y="-15.4" font-family="sans-serif" font-size="14.00" fill="#000000"> &#160;Module</text>
<polygon fill="#80b1d3" stroke="transparent" points="460.5,-10 460.5,-30 480.5,-30 480.5,-10 460.5,-10"/>
<text text-anchor="start" x="484.2812" y="-15.4" font-family="sans-serif" font-size="14.00" fill="#000000"> &#160;Bootstrap</text>
<polygon fill="#fdb462" stroke="transparent" points="557.5,-10 557.5,-30 577.5,-30 577.5,-10 557.5,-10"/>
<text text-anchor="start" x="581.1732" y="-15.4" font-family="sans-serif" font-size="14.00" fill="#000000"> &#160;Providers</text>
<polygon fill="#fb8072" stroke="transparent" points="653.5,-10 653.5,-30 673.5,-30 673.5,-10 653.5,-10"/>
<text text-anchor="start" x="677.2258" y="-15.4" font-family="sans-serif" font-size="14.00" fill="#000000"> &#160;Exports</text>
<g id="clust1" class="cluster">
<title>cluster_AppModule</title>
<polygon fill="none" stroke="#000000" stroke-dasharray="1,5" points="8,-70 8,-268 983,-268 983,-70 8,-70"/>
</g>
<g id="clust2" class="cluster">
<title>cluster_AppModule_declarations</title>
<polygon fill="none" stroke="#000000" points="396,-78 396,-130 975,-130 975,-78 396,-78"/>
</g>
<g id="clust7" class="cluster">
<title>cluster_AppModule_imports</title>
<polygon fill="none" stroke="#000000" points="16,-78 16,-130 388,-130 388,-78 16,-78"/>
</g>
<g id="clust9" class="cluster">
<title>cluster_AppModule_bootstrap</title>
<polygon fill="none" stroke="#000000" points="425,-208 425,-260 549,-260 549,-208 425,-208"/>
</g>
<!-- AppComponent -->
<g id="node1" class="node">
<title>AppComponent</title>
<polygon fill="#ffffb3" stroke="#000000" points="966.9399,-122 861.0601,-122 861.0601,-86 966.9399,-86 966.9399,-122"/>
<text text-anchor="middle" x="914" y="-99.8" font-family="Times,serif" font-size="14.00" fill="#000000">AppComponent</text>
</g>
<!-- AppModule -->
<g id="node5" class="node">
<title>AppModule</title>
<polygon fill="#8dd3c7" stroke="#000000" points="528.6571,-187 525.6571,-191 504.6571,-191 501.6571,-187 445.3429,-187 445.3429,-151 528.6571,-151 528.6571,-187"/>
<text text-anchor="middle" x="487" y="-164.8" font-family="Times,serif" font-size="14.00" fill="#000000">AppModule</text>
</g>
<!-- AppComponent&#45;&gt;AppModule -->
<g id="edge1" class="edge">
<title>AppComponent&#45;&gt;AppModule</title>
<path fill="none" stroke="#000000" d="M914,-122.2921C914,-144.2057 914,-178 914,-178 914,-178 538.72,-178 538.72,-178"/>
<polygon fill="#000000" stroke="#000000" points="538.7201,-174.5001 528.72,-178 538.72,-181.5001 538.7201,-174.5001"/>
</g>
<!-- HeaderComponent -->
<g id="node2" class="node">
<title>HeaderComponent</title>
<polygon fill="#ffffb3" stroke="#000000" points="842.7437,-122 721.2563,-122 721.2563,-86 842.7437,-86 842.7437,-122"/>
<text text-anchor="middle" x="782" y="-99.8" font-family="Times,serif" font-size="14.00" fill="#000000">HeaderComponent</text>
</g>
<!-- HeaderComponent&#45;&gt;AppModule -->
<g id="edge2" class="edge">
<title>HeaderComponent&#45;&gt;AppModule</title>
<path fill="none" stroke="#000000" d="M782,-122.1061C782,-141.3391 782,-169 782,-169 782,-169 538.953,-169 538.953,-169"/>
<polygon fill="#000000" stroke="#000000" points="538.9531,-165.5001 528.953,-169 538.953,-172.5001 538.9531,-165.5001"/>
</g>
<!-- HomeComponent -->
<g id="node3" class="node">
<title>HomeComponent</title>
<polygon fill="#ffffb3" stroke="#000000" points="702.5451,-122 587.4549,-122 587.4549,-86 702.5451,-86 702.5451,-122"/>
<text text-anchor="middle" x="645" y="-99.8" font-family="Times,serif" font-size="14.00" fill="#000000">HomeComponent</text>
</g>
<!-- HomeComponent&#45;&gt;AppModule -->
<g id="edge3" class="edge">
<title>HomeComponent&#45;&gt;AppModule</title>
<path fill="none" stroke="#000000" d="M645,-122.027C645,-138.3976 645,-160 645,-160 645,-160 538.9263,-160 538.9263,-160"/>
<polygon fill="#000000" stroke="#000000" points="538.9263,-156.5001 528.9263,-160 538.9262,-163.5001 538.9263,-156.5001"/>
</g>
<!-- PageNotFoundComponent -->
<g id="node4" class="node">
<title>PageNotFoundComponent</title>
<polygon fill="#ffffb3" stroke="#000000" points="569.8243,-122 404.1757,-122 404.1757,-86 569.8243,-86 569.8243,-122"/>
<text text-anchor="middle" x="487" y="-99.8" font-family="Times,serif" font-size="14.00" fill="#000000">PageNotFoundComponent</text>
</g>
<!-- PageNotFoundComponent&#45;&gt;AppModule -->
<g id="edge4" class="edge">
<title>PageNotFoundComponent&#45;&gt;AppModule</title>
<path fill="none" stroke="#000000" d="M487,-122.1061C487,-122.1061 487,-140.991 487,-140.991"/>
<polygon fill="#000000" stroke="#000000" points="483.5001,-140.9909 487,-150.991 490.5001,-140.991 483.5001,-140.9909"/>
</g>
<!-- AppComponent  -->
<g id="node9" class="node">
<title>AppComponent </title>
<polygon fill="#80b1d3" stroke="#000000" points="541.439,-252 432.561,-252 432.561,-216 541.439,-216 541.439,-252"/>
<text text-anchor="middle" x="487" y="-229.8" font-family="Times,serif" font-size="14.00" fill="#000000">AppComponent </text>
</g>
<!-- AppModule&#45;&gt;AppComponent  -->
<g id="edge8" class="edge">
<title>AppModule&#45;&gt;AppComponent </title>
<path fill="none" stroke="#000000" stroke-dasharray="1,5" d="M487,-187.1061C487,-187.1061 487,-205.991 487,-205.991"/>
<polygon fill="#000000" stroke="#000000" points="483.5001,-205.9909 487,-215.991 490.5001,-205.991 483.5001,-205.9909"/>
</g>
<!-- AppRoutingModule -->
<g id="node6" class="node">
<title>AppRoutingModule</title>
<polygon fill="#8dd3c7" stroke="#000000" points="380.2744,-122 377.2744,-126 356.2744,-126 353.2744,-122 251.7256,-122 251.7256,-86 380.2744,-86 380.2744,-122"/>
<text text-anchor="middle" x="316" y="-99.8" font-family="Times,serif" font-size="14.00" fill="#000000">AppRoutingModule</text>
</g>
<!-- AppRoutingModule&#45;&gt;AppModule -->
<g id="edge5" class="edge">
<title>AppRoutingModule&#45;&gt;AppModule</title>
<path fill="none" stroke="#000000" d="M316,-122.027C316,-138.3976 316,-160 316,-160 316,-160 435.1687,-160 435.1687,-160"/>
<polygon fill="#000000" stroke="#000000" points="435.1687,-163.5001 445.1687,-160 435.1687,-156.5001 435.1687,-163.5001"/>
</g>
<!-- LoginModule -->
<g id="node7" class="node">
<title>LoginModule</title>
<polygon fill="#8dd3c7" stroke="#000000" points="233.493,-122 230.493,-126 209.493,-126 206.493,-122 140.507,-122 140.507,-86 233.493,-86 233.493,-122"/>
<text text-anchor="middle" x="187" y="-99.8" font-family="Times,serif" font-size="14.00" fill="#000000">LoginModule</text>
</g>
<!-- LoginModule&#45;&gt;AppModule -->
<g id="edge6" class="edge">
<title>LoginModule&#45;&gt;AppModule</title>
<path fill="none" stroke="#000000" d="M187,-122.1061C187,-141.3391 187,-169 187,-169 187,-169 435.2863,-169 435.2863,-169"/>
<polygon fill="#000000" stroke="#000000" points="435.2863,-172.5001 445.2863,-169 435.2863,-165.5001 435.2863,-172.5001"/>
</g>
<!-- SharedModule -->
<g id="node8" class="node">
<title>SharedModule</title>
<polygon fill="#8dd3c7" stroke="#000000" points="122.4231,-122 119.4231,-126 98.4231,-126 95.4231,-122 23.5769,-122 23.5769,-86 122.4231,-86 122.4231,-122"/>
<text text-anchor="middle" x="73" y="-99.8" font-family="Times,serif" font-size="14.00" fill="#000000">SharedModule</text>
</g>
<!-- SharedModule&#45;&gt;AppModule -->
<g id="edge7" class="edge">
<title>SharedModule&#45;&gt;AppModule</title>
<path fill="none" stroke="#000000" d="M73,-122.2921C73,-144.2057 73,-178 73,-178 73,-178 435.0252,-178 435.0252,-178"/>
<polygon fill="#000000" stroke="#000000" points="435.0252,-181.5001 445.0252,-178 435.0251,-174.5001 435.0252,-181.5001"/>
</g>
</g>
</svg>
