<?xml version="1.0" encoding="UTF-8" standalone="no"?>
<!DOCTYPE svg PUBLIC "-//W3C//DTD SVG 1.1//EN"
 "http://www.w3.org/Graphics/SVG/1.1/DTD/svg11.dtd">
<!-- Generated by graphviz version 2.40.1 (20161225.0304)
 -->
<!-- Title: dependencies Pages: 1 -->
<svg width="1666pt" height="284pt"
 viewBox="0.00 0.00 1666.00 284.00" xmlns="http://www.w3.org/2000/svg" xmlns:xlink="http://www.w3.org/1999/xlink">
<g id="graph0" class="graph" transform="scale(1 1) rotate(0) translate(4 280)">
<title>dependencies</title>
<polygon fill="#ffffff" stroke="transparent" points="-4,4 -4,-280 1662,-280 1662,4 -4,4"/>
<text text-anchor="start" x="808.0091" y="-42.4" font-family="sans-serif" font-weight="bold" font-size="14.00" fill="#000000">Legend</text>
<polygon fill="#ffffb3" stroke="transparent" points="595,-10 595,-30 615,-30 615,-10 595,-10"/>
<text text-anchor="start" x="618.629" y="-15.4" font-family="sans-serif" font-size="14.00" fill="#000000"> &#160;Declarations</text>
<polygon fill="#8dd3c7" stroke="transparent" points="708,-10 708,-30 728,-30 728,-10 708,-10"/>
<text text-anchor="start" x="731.7251" y="-15.4" font-family="sans-serif" font-size="14.00" fill="#000000"> &#160;Module</text>
<polygon fill="#80b1d3" stroke="transparent" points="794,-10 794,-30 814,-30 814,-10 794,-10"/>
<text text-anchor="start" x="817.7812" y="-15.4" font-family="sans-serif" font-size="14.00" fill="#000000"> &#160;Bootstrap</text>
<polygon fill="#fdb462" stroke="transparent" points="891,-10 891,-30 911,-30 911,-10 891,-10"/>
<text text-anchor="start" x="914.6732" y="-15.4" font-family="sans-serif" font-size="14.00" fill="#000000"> &#160;Providers</text>
<polygon fill="#fb8072" stroke="transparent" points="987,-10 987,-30 1007,-30 1007,-10 987,-10"/>
<text text-anchor="start" x="1010.7258" y="-15.4" font-family="sans-serif" font-size="14.00" fill="#000000"> &#160;Exports</text>
<g id="clust1" class="cluster">
<title>cluster_ProductModule</title>
<polygon fill="none" stroke="#000000" stroke-dasharray="1,5" points="8,-70 8,-268 1650,-268 1650,-70 8,-70"/>
</g>
<g id="clust2" class="cluster">
<title>cluster_ProductModule_declarations</title>
<polygon fill="none" stroke="#000000" points="468,-78 468,-130 1642,-130 1642,-78 468,-78"/>
</g>
<g id="clust10" class="cluster">
<title>cluster_ProductModule_imports</title>
<polygon fill="none" stroke="#000000" points="180,-78 180,-130 460,-130 460,-78 180,-78"/>
</g>
<g id="clust11" class="cluster">
<title>cluster_ProductModule_exports</title>
<polygon fill="none" stroke="#000000" points="702,-208 702,-260 908,-260 908,-208 702,-208"/>
</g>
<g id="clust13" class="cluster">
<title>cluster_ProductModule_providers</title>
<polygon fill="none" stroke="#000000" points="16,-78 16,-130 172,-130 172,-78 16,-78"/>
</g>
<!-- HighlightDirective -->
<g id="node1" class="node">
<title>HighlightDirective</title>
<polygon fill="#ffffb3" stroke="#000000" points="1633.7521,-122 1512.2479,-122 1512.2479,-86 1633.7521,-86 1633.7521,-122"/>
<text text-anchor="middle" x="1573" y="-99.8" font-family="Times,serif" font-size="14.00" fill="#000000">HighlightDirective</text>
</g>
<!-- ProductModule -->
<g id="node8" class="node">
<title>ProductModule</title>
<polygon fill="#8dd3c7" stroke="#000000" points="856.5982,-187 853.5982,-191 832.5982,-191 829.5982,-187 753.4018,-187 753.4018,-151 856.5982,-151 856.5982,-187"/>
<text text-anchor="middle" x="805" y="-164.8" font-family="Times,serif" font-size="14.00" fill="#000000">ProductModule</text>
</g>
<!-- HighlightDirective&#45;&gt;ProductModule -->
<g id="edge1" class="edge">
<title>HighlightDirective&#45;&gt;ProductModule</title>
<path fill="none" stroke="#000000" d="M1573,-122.0109C1573,-144.4852 1573,-180 1573,-180 1573,-180 866.5832,-180 866.5832,-180"/>
<polygon fill="#000000" stroke="#000000" points="866.5832,-176.5001 856.5832,-180 866.5831,-183.5001 866.5832,-176.5001"/>
</g>
<!-- NgxUnlessDirective -->
<g id="node2" class="node">
<title>NgxUnlessDirective</title>
<polygon fill="#ffffb3" stroke="#000000" points="1494.2907,-122 1363.7093,-122 1363.7093,-86 1494.2907,-86 1494.2907,-122"/>
<text text-anchor="middle" x="1429" y="-99.8" font-family="Times,serif" font-size="14.00" fill="#000000">NgxUnlessDirective</text>
</g>
<!-- NgxUnlessDirective&#45;&gt;ProductModule -->
<g id="edge2" class="edge">
<title>NgxUnlessDirective&#45;&gt;ProductModule</title>
<path fill="none" stroke="#000000" d="M1429,-122.1289C1429,-142.5724 1429,-173 1429,-173 1429,-173 866.5954,-173 866.5954,-173"/>
<polygon fill="#000000" stroke="#000000" points="866.5955,-169.5001 856.5954,-173 866.5954,-176.5001 866.5955,-169.5001"/>
</g>
<!-- ProductCardComponent -->
<g id="node3" class="node">
<title>ProductCardComponent</title>
<polygon fill="#ffffb3" stroke="#000000" points="1346.0926,-122 1193.9074,-122 1193.9074,-86 1346.0926,-86 1346.0926,-122"/>
<text text-anchor="middle" x="1270" y="-99.8" font-family="Times,serif" font-size="14.00" fill="#000000">ProductCardComponent</text>
</g>
<!-- ProductCardComponent&#45;&gt;ProductModule -->
<g id="edge3" class="edge">
<title>ProductCardComponent&#45;&gt;ProductModule</title>
<path fill="none" stroke="#000000" d="M1270,-122.2667C1270,-140.5552 1270,-166 1270,-166 1270,-166 866.9879,-166 866.9879,-166"/>
<polygon fill="#000000" stroke="#000000" points="866.9879,-162.5001 856.9879,-166 866.9878,-169.5001 866.9879,-162.5001"/>
</g>
<!-- ProductDashboardComponent -->
<g id="node4" class="node">
<title>ProductDashboardComponent</title>
<polygon fill="#ffffb3" stroke="#000000" points="1175.5224,-122 990.4776,-122 990.4776,-86 1175.5224,-86 1175.5224,-122"/>
<text text-anchor="middle" x="1083" y="-99.8" font-family="Times,serif" font-size="14.00" fill="#000000">ProductDashboardComponent</text>
</g>
<!-- ProductDashboardComponent&#45;&gt;ProductModule -->
<g id="edge4" class="edge">
<title>ProductDashboardComponent&#45;&gt;ProductModule</title>
<path fill="none" stroke="#000000" d="M1083,-122.0091C1083,-138.0494 1083,-159 1083,-159 1083,-159 866.6382,-159 866.6382,-159"/>
<polygon fill="#000000" stroke="#000000" points="866.6382,-155.5001 856.6382,-159 866.6381,-162.5001 866.6382,-155.5001"/>
</g>
<!-- ProductDetailComponent -->
<g id="node5" class="node">
<title>ProductDetailComponent</title>
<polygon fill="#ffffb3" stroke="#000000" points="972.5884,-122 813.4116,-122 813.4116,-86 972.5884,-86 972.5884,-122"/>
<text text-anchor="middle" x="893" y="-99.8" font-family="Times,serif" font-size="14.00" fill="#000000">ProductDetailComponent</text>
</g>
<!-- ProductDetailComponent&#45;&gt;ProductModule -->
<g id="edge5" class="edge">
<title>ProductDetailComponent&#45;&gt;ProductModule</title>
<path fill="none" stroke="#000000" d="M835.0025,-122.1061C835.0025,-122.1061 835.0025,-140.991 835.0025,-140.991"/>
<polygon fill="#000000" stroke="#000000" points="831.5025,-140.9909 835.0025,-150.991 838.5025,-140.991 831.5025,-140.9909"/>
</g>
<!-- ProductFormComponent -->
<g id="node6" class="node">
<title>ProductFormComponent</title>
<polygon fill="#ffffb3" stroke="#000000" points="795.7147,-122 640.2853,-122 640.2853,-86 795.7147,-86 795.7147,-122"/>
<text text-anchor="middle" x="718" y="-99.8" font-family="Times,serif" font-size="14.00" fill="#000000">ProductFormComponent</text>
</g>
<!-- ProductFormComponent&#45;&gt;ProductModule -->
<g id="edge6" class="edge">
<title>ProductFormComponent&#45;&gt;ProductModule</title>
<path fill="none" stroke="#000000" d="M774.5291,-122.1061C774.5291,-122.1061 774.5291,-140.991 774.5291,-140.991"/>
<polygon fill="#000000" stroke="#000000" points="771.0292,-140.9909 774.5291,-150.991 778.0292,-140.991 771.0292,-140.9909"/>
</g>
<!-- ProductListComponent -->
<g id="node7" class="node">
<title>ProductListComponent</title>
<polygon fill="#ffffb3" stroke="#000000" points="622.1596,-122 475.8404,-122 475.8404,-86 622.1596,-86 622.1596,-122"/>
<text text-anchor="middle" x="549" y="-99.8" font-family="Times,serif" font-size="14.00" fill="#000000">ProductListComponent</text>
</g>
<!-- ProductListComponent&#45;&gt;ProductModule -->
<g id="edge7" class="edge">
<title>ProductListComponent&#45;&gt;ProductModule</title>
<path fill="none" stroke="#000000" d="M549,-122.0091C549,-138.0494 549,-159 549,-159 549,-159 743.1946,-159 743.1946,-159"/>
<polygon fill="#000000" stroke="#000000" points="743.1946,-162.5001 753.1946,-159 743.1945,-155.5001 743.1946,-162.5001"/>
</g>
<!-- ProductDashboardComponent  -->
<g id="node11" class="node">
<title>ProductDashboardComponent </title>
<polygon fill="#fb8072" stroke="#000000" points="899.5218,-252 710.4782,-252 710.4782,-216 899.5218,-216 899.5218,-252"/>
<text text-anchor="middle" x="805" y="-229.8" font-family="Times,serif" font-size="14.00" fill="#000000">ProductDashboardComponent </text>
</g>
<!-- ProductModule&#45;&gt;ProductDashboardComponent  -->
<g id="edge10" class="edge">
<title>ProductModule&#45;&gt;ProductDashboardComponent </title>
<path fill="none" stroke="#000000" stroke-dasharray="5,2" d="M805,-187.1061C805,-187.1061 805,-205.991 805,-205.991"/>
<polygon fill="#000000" stroke="#000000" points="801.5001,-205.9909 805,-215.991 808.5001,-205.991 801.5001,-205.9909"/>
</g>
<!-- ProductRoutingModule -->
<g id="node9" class="node">
<title>ProductRoutingModule</title>
<polygon fill="#8dd3c7" stroke="#000000" points="452.2162,-122 449.2162,-126 428.2162,-126 425.2162,-122 303.7838,-122 303.7838,-86 452.2162,-86 452.2162,-122"/>
<text text-anchor="middle" x="378" y="-99.8" font-family="Times,serif" font-size="14.00" fill="#000000">ProductRoutingModule</text>
</g>
<!-- ProductRoutingModule&#45;&gt;ProductModule -->
<g id="edge8" class="edge">
<title>ProductRoutingModule&#45;&gt;ProductModule</title>
<path fill="none" stroke="#000000" d="M378,-122.2667C378,-140.5552 378,-166 378,-166 378,-166 743.0683,-166 743.0683,-166"/>
<polygon fill="#000000" stroke="#000000" points="743.0683,-169.5001 753.0683,-166 743.0683,-162.5001 743.0683,-169.5001"/>
</g>
<!-- SharedModule -->
<g id="node10" class="node">
<title>SharedModule</title>
<polygon fill="#8dd3c7" stroke="#000000" points="286.4231,-122 283.4231,-126 262.4231,-126 259.4231,-122 187.5769,-122 187.5769,-86 286.4231,-86 286.4231,-122"/>
<text text-anchor="middle" x="237" y="-99.8" font-family="Times,serif" font-size="14.00" fill="#000000">SharedModule</text>
</g>
<!-- SharedModule&#45;&gt;ProductModule -->
<g id="edge9" class="edge">
<title>SharedModule&#45;&gt;ProductModule</title>
<path fill="none" stroke="#000000" d="M237,-122.1289C237,-142.5724 237,-173 237,-173 237,-173 743.3403,-173 743.3403,-173"/>
<polygon fill="#000000" stroke="#000000" points="743.3403,-176.5001 753.3403,-173 743.3402,-169.5001 743.3403,-176.5001"/>
</g>
<!-- ProductService -->
<g id="node12" class="node">
<title>ProductService</title>
<ellipse fill="#fdb462" stroke="#000000" cx="94" cy="-104" rx="70.0616" ry="18"/>
<text text-anchor="middle" x="94" y="-99.8" font-family="Times,serif" font-size="14.00" fill="#000000">ProductService</text>
</g>
<!-- ProductService&#45;&gt;ProductModule -->
<g id="edge11" class="edge">
<title>ProductService&#45;&gt;ProductModule</title>
<path fill="none" stroke="#000000" d="M94,-122.0109C94,-144.4852 94,-180 94,-180 94,-180 743.2939,-180 743.2939,-180"/>
<polygon fill="#000000" stroke="#000000" points="743.294,-183.5001 753.2939,-180 743.2939,-176.5001 743.294,-183.5001"/>
</g>
</g>
</svg>
